<svg width="64" height="64" viewBox="0 0 64 64" fill="none" xmlns="http://www.w3.org/2000/svg">
<rect width="64" height="64" rx="12" fill="url(#paint0_linear_216_659)"/>
<path d="M28.6173 21.295L29.621 24.0825C30.736 27.1762 33.1723 29.6125 36.266 30.7275L39.0535 31.7312C39.3048 31.8225 39.3048 32.1787 39.0535 32.2687L36.266 33.2725C33.1723 34.3875 30.736 36.8237 29.621 39.9175L28.6173 42.705C28.526 42.9562 28.1698 42.9562 28.0798 42.705L27.076 39.9175C25.961 36.8237 23.5248 34.3875 20.431 33.2725L17.6435 32.2687C17.3923 32.1775 17.3923 31.8212 17.6435 31.7312L20.431 30.7275C23.5248 29.6125 25.961 27.1762 27.076 24.0825L28.0798 21.295C28.1698 21.0425 28.526 21.0425 28.6173 21.295Z" fill="white"/>
<path d="M41.1648 14.5962L41.6736 16.0075C42.2386 17.5737 43.4723 18.8075 45.0386 19.3725L46.4498 19.8812C46.5773 19.9275 46.5773 20.1075 46.4498 20.1537L45.0386 20.6625C43.4723 21.2275 42.2386 22.4612 41.6736 24.0275L41.1648 25.4387C41.1186 25.5662 40.9386 25.5662 40.8923 25.4387L40.3836 24.0275C39.8186 22.4612 38.5848 21.2275 37.0186 20.6625L35.6073 20.1537C35.4798 20.1075 35.4798 19.9275 35.6073 19.8812L37.0186 19.3725C38.5848 18.8075 39.8186 17.5737 40.3836 16.0075L40.8923 14.5962C40.9386 14.4675 41.1198 14.4675 41.1648 14.5962Z" fill="white"/>
<path d="M41.1648 38.5625L41.6736 39.9737C42.2386 41.54 43.4723 42.7737 45.0386 43.3387L46.4498 43.8475C46.5773 43.8937 46.5773 44.0737 46.4498 44.12L45.0386 44.6287C43.4723 45.1937 42.2386 46.4275 41.6736 47.9937L41.1648 49.405C41.1186 49.5325 40.9386 49.5325 40.8923 49.405L40.3836 47.9937C39.8186 46.4275 38.5848 45.1937 37.0186 44.6287L35.6073 44.12C35.4798 44.0737 35.4798 43.8937 35.6073 43.8475L37.0186 43.3387C38.5848 42.7737 39.8186 41.54 40.3836 39.9737L40.8923 38.5625C40.9386 38.435 41.1198 38.435 41.1648 38.5625Z" fill="white"/>
<defs>
<linearGradient id="paint0_linear_216_659" x1="64" y1="0" x2="-12.8178" y2="25.7261" gradientUnits="userSpaceOnUse">
<stop stop-color="#451B05"/>
<stop offset="0.546408" stop-color="#F07306"/>
<stop offset="1" stop-color="#451B05"/>
</linearGradient>
</defs>
</svg>
