<svg width="18" height="10" viewBox="0 0 18 10" fill="none" xmlns="http://www.w3.org/2000/svg">
<path d="M5.0625 0.500011C4.17249 0.500011 3.30246 0.763932 2.56244 1.2584C1.82241 1.75286 1.24564 2.45567 0.905044 3.27794C0.56445 4.1002 0.475335 5.005 0.648968 5.87792C0.822602 6.75083 1.25119 7.55266 1.88052 8.18199C2.50986 8.81133 3.31168 9.23991 4.1846 9.41355C5.05751 9.58718 5.96231 9.49806 6.78458 9.15747C7.60684 8.81688 8.30965 8.2401 8.80412 7.50008C9.29858 6.76006 9.5625 5.89003 9.5625 5.00001C9.5612 3.80694 9.08667 2.6631 8.24304 1.81947C7.39941 0.975839 6.25558 0.501314 5.0625 0.500011ZM5.0625 8.37501C4.39499 8.37501 3.74247 8.17707 3.18745 7.80622C2.63244 7.43537 2.19985 6.90827 1.94441 6.29157C1.68896 5.67487 1.62213 4.99627 1.75235 4.34158C1.88258 3.6869 2.20401 3.08553 2.67602 2.61353C3.14802 2.14152 3.74939 1.82009 4.40407 1.68986C5.05876 1.55964 5.73736 1.62647 6.35406 1.88192C6.97076 2.13736 7.49786 2.56995 7.86871 3.12496C8.23956 3.67998 8.4375 4.3325 8.4375 5.00001C8.43657 5.89483 8.08069 6.75274 7.44796 7.38547C6.81523 8.0182 5.95732 8.37408 5.0625 8.37501ZM12.9375 0.500011C12.5381 0.500011 11.7844 0.694074 11.2275 1.99415C10.8795 2.80626 10.6875 3.87501 10.6875 5.00001C10.6875 6.12501 10.8795 7.19376 11.2275 8.00587C11.7844 9.30595 12.5381 9.50001 12.9375 9.50001C13.3369 9.50001 14.0906 9.30595 14.6475 8.00587C14.9955 7.19376 15.1875 6.12501 15.1875 5.00001C15.1875 3.87501 14.9955 2.80626 14.6475 1.99415C14.0906 0.694074 13.3369 0.500011 12.9375 0.500011ZM12.9375 8.37501C12.5409 8.37501 11.8125 7.09392 11.8125 5.00001C11.8125 2.90611 12.5409 1.62501 12.9375 1.62501C13.3341 1.62501 14.0625 2.90611 14.0625 5.00001C14.0625 7.09392 13.3341 8.37501 12.9375 8.37501ZM17.4375 1.06251V8.93751C17.4375 9.0867 17.3782 9.22977 17.2728 9.33526C17.1673 9.44075 17.0242 9.50001 16.875 9.50001C16.7258 9.50001 16.5827 9.44075 16.4773 9.33526C16.3718 9.22977 16.3125 9.0867 16.3125 8.93751V1.06251C16.3125 0.913327 16.3718 0.770253 16.4773 0.664764C16.5827 0.559275 16.7258 0.500011 16.875 0.500011C17.0242 0.500011 17.1673 0.559275 17.2728 0.664764C17.3782 0.770253 17.4375 0.913327 17.4375 1.06251Z" fill="black"/>
</svg>
