<svg width="133" height="36" viewBox="0 0 133 36" fill="none" xmlns="http://www.w3.org/2000/svg">
<path d="M6.38135 27.2923C5.27879 26.8257 4.30955 26.1821 3.47622 25.3616C2.6429 24.541 1.99418 23.5846 1.52751 22.4949C1.06085 21.4051 0.830078 20.2513 0.830078 19.0385C0.830078 17.8128 1.06341 16.6513 1.52751 15.5539C1.99418 14.4564 2.6429 13.4975 3.47622 12.6769C4.30955 11.8564 5.27879 11.2128 6.38135 10.7462C7.48391 10.2795 8.64289 10.0487 9.85571 10.0487C11.0557 10.0487 12.2019 10.2744 13.2942 10.7282C14.3839 11.1821 15.3455 11.818 16.1813 12.641C17.0019 13.4487 17.6531 14.4 18.1301 15.4898C18.607 16.5795 18.8583 17.7257 18.8839 18.9282C18.8839 19.5154 18.6967 19.9872 18.3224 20.3436C17.948 20.7 17.4685 20.8769 16.8788 20.8769H5.38904C5.69417 21.7949 6.26596 22.5616 7.0993 23.1744C7.90699 23.7744 8.8275 24.0744 9.85571 24.0744C10.3942 24.0744 10.8429 24.0282 11.1967 23.9359C11.5531 23.8436 11.8942 23.7 12.2249 23.5051C12.666 23.2487 13.0634 23.118 13.4198 23.118C13.9711 23.118 14.448 23.3333 14.8531 23.7616C15.0249 23.959 15.1634 24.1846 15.266 24.441C15.3711 24.6975 15.4224 24.9616 15.4224 25.2308C15.4224 25.6359 15.2865 26.0103 15.0172 26.3513C14.748 26.6949 14.3685 26.9898 13.8788 27.2333C13.389 27.4795 12.7967 27.6641 12.1044 27.7949C11.4121 27.9231 10.6608 27.9872 9.85314 27.9872C8.64289 27.9898 7.48391 27.7564 6.38135 27.2923ZM14.689 17.4564C14.5429 16.9539 14.3224 16.4846 14.0275 16.0513C13.7326 15.6154 13.3788 15.2385 12.9608 14.9205C12.1019 14.2718 11.0916 13.9462 9.9275 13.9462C8.7993 13.9462 7.80186 14.2821 6.93007 14.9564C6.52494 15.2641 6.17879 15.6333 5.89161 16.0692C5.60443 16.5051 5.39161 16.9667 5.25827 17.4564H14.689ZM30.407 0.692322H45.3711V5.54617H31.307C28.3531 5.54617 26.8762 6.72822 26.8762 9.09489C26.8762 9.94104 27.1275 10.6154 27.63 11.118C28.2429 11.7308 29.1916 12.0359 30.4788 12.0359H37.9788C41.2147 12.0359 43.5044 12.6846 44.8531 13.9846C46.0788 15.1616 46.6916 17.0616 46.6916 19.6821C46.6916 22.3667 46.0121 24.3513 44.6506 25.6385C43.13 27.0718 40.6429 27.7898 37.1865 27.7898H22.0429V22.9359H36.289C38.0172 22.9359 39.2044 22.6231 39.8557 21.9974C40.3941 21.4718 40.6634 20.6 40.6634 19.3872C40.6634 18.5795 40.4608 17.9846 40.0557 17.6051C39.4429 17.0282 38.3147 16.741 36.6736 16.741H29.9634C26.8506 16.741 24.566 16.0975 23.107 14.8103C21.648 13.5231 20.9198 11.5436 20.9198 8.87181C20.9198 6.18719 21.607 4.18976 22.9788 2.8795C24.5121 1.42053 26.9865 0.692322 30.407 0.692322ZM77.0839 7.93335H86.6608V27.0333C86.6608 29.8898 86.0044 31.941 84.6941 33.1923C83.5044 34.3308 81.648 34.9026 79.1249 34.9026H68.83V30.8769H78.1864C80.2941 30.8769 81.348 29.8487 81.348 27.7898H77.0839C73.3326 27.7898 70.589 26.7846 68.848 24.7744C67.4018 23.1077 66.6788 20.8231 66.6788 17.918C66.6788 15.0257 67.407 12.7282 68.8659 11.0257C70.63 8.96412 73.3685 7.93335 77.0839 7.93335ZM78.6275 23.6872H81.348V12.1821C80.9429 12.0846 80.548 12.0103 80.1634 11.9616C79.7762 11.9128 79.3583 11.8872 78.9044 11.8872C77.03 11.8872 75.5044 12.3359 74.3275 13.2282C72.907 14.3077 72.1941 15.918 72.1941 18.0616C72.1941 20.1564 72.7454 21.641 73.848 22.5103C74.8403 23.2974 76.4326 23.6872 78.6275 23.6872ZM96.1813 27.7872H90.9788V7.93335H100.815C103.768 7.93335 105.894 8.48463 107.194 9.58719C108.494 10.6898 109.143 12.559 109.143 15.1949V27.7872H103.83V15.8769C103.83 14.4051 103.645 13.4616 103.279 13.0462C102.861 12.5692 101.907 12.3282 100.412 12.3282H96.1839V27.7872H96.1813ZM126.753 27.7872H113.297V23.6872H124.327C126.189 23.6872 127.122 23.0205 127.122 21.6846C127.122 20.3975 126.192 19.7539 124.327 19.7539H119.768C118.212 19.7539 117.043 19.6616 116.258 19.4769C115.156 19.2205 114.34 18.7231 113.812 17.9872C113.212 17.1539 112.912 15.9103 112.912 14.2564C112.912 10.041 115.245 7.93335 119.915 7.93335H131.145V12.0333H121.881C120.545 12.0333 119.651 12.1385 119.197 12.3462C118.597 12.6154 118.297 13.1667 118.297 14C118.297 15.1026 119.13 15.6539 120.797 15.6539H125.576C127.548 15.6539 129.086 16.0333 130.189 16.7923C131.538 17.7231 132.212 19.2 132.212 21.2231C132.212 23.1103 131.712 24.6769 130.715 25.9205C129.715 27.1667 128.394 27.7872 126.753 27.7872ZM60.507 8.13591L52.6198 8.35386C52.2557 8.36412 51.9711 8.66668 51.9813 9.02822L52.0967 13.2205C52.107 13.5846 52.4095 13.8692 52.7711 13.859L60.6582 13.641C60.8403 13.6359 61.0018 13.559 61.1172 13.4359C61.2326 13.3128 61.3018 13.1462 61.2967 12.9667L61.1813 8.77437C61.1711 8.41027 60.8685 8.12566 60.507 8.13591ZM60.6941 14.9539L52.807 15.1718C52.7941 15.1718 52.7839 15.1692 52.7736 15.1692L50.7352 21.8974C50.689 22.0513 50.6993 22.218 50.7685 22.3641L56.6454 35.1026L56.3352 23.8051C56.0634 23.718 55.807 23.5769 55.5865 23.3667C54.7967 22.618 54.7608 21.3692 55.5095 20.5769C56.2582 19.7872 57.507 19.7513 58.2993 20.5C59.089 21.2487 59.1249 22.4974 58.3762 23.2898C58.1685 23.5103 57.9172 23.6667 57.6506 23.7667L57.9608 35.0641L63.1275 22.0257C63.1865 21.8769 63.189 21.7103 63.1352 21.559L60.73 14.9513C60.7172 14.9513 60.7044 14.9539 60.6941 14.9539ZM59.3711 3.83848C59.3711 5.32309 58.1685 6.52566 56.6839 6.52566C55.1993 6.52566 53.9967 5.32309 53.9967 3.83848C53.9967 2.35386 55.1993 1.1513 56.6839 1.1513C58.1685 1.1513 59.3711 2.35386 59.3711 3.83848Z" fill="white"/>
</svg>
