<svg width="23" height="18" viewBox="0 0 23 18" fill="none" xmlns="http://www.w3.org/2000/svg">
<path d="M22.4969 9.37393C22.4969 9.62253 22.3982 9.86095 22.2224 10.0367C22.0466 10.2125 21.8082 10.3113 21.5596 10.3113H9.37415C9.12555 10.3113 8.88713 10.2125 8.71135 10.0367C8.53556 9.86095 8.43681 9.62253 8.43681 9.37393C8.43681 9.12533 8.53556 8.88692 8.71135 8.71113C8.88713 8.53535 9.12555 8.43659 9.37415 8.43659H21.5596C21.8082 8.43659 22.0466 8.53535 22.2224 8.71113C22.3982 8.88692 22.4969 9.12533 22.4969 9.37393ZM9.37415 2.81254H21.5596C21.8082 2.81254 22.0466 2.71379 22.2224 2.538C22.3982 2.36222 22.4969 2.1238 22.4969 1.8752C22.4969 1.6266 22.3982 1.38819 22.2224 1.2124C22.0466 1.03662 21.8082 0.937862 21.5596 0.937862H9.37415C9.12555 0.937862 8.88713 1.03662 8.71135 1.2124C8.53556 1.38819 8.43681 1.6266 8.43681 1.8752C8.43681 2.1238 8.53556 2.36222 8.71135 2.538C8.88713 2.71379 9.12555 2.81254 9.37415 2.81254ZM21.5596 15.9353H0.938078C0.68948 15.9353 0.451064 16.0341 0.275278 16.2099C0.0994927 16.3856 0.000737259 16.6241 0.000737259 16.8727C0.000737259 17.1213 0.0994927 17.3597 0.275278 17.5355C0.451064 17.7112 0.68948 17.81 0.938078 17.81H21.5596C21.8082 17.81 22.0466 17.7112 22.2224 17.5355C22.3982 17.3597 22.4969 17.1213 22.4969 16.8727C22.4969 16.6241 22.3982 16.3856 22.2224 16.2099C22.0466 16.0341 21.8082 15.9353 21.5596 15.9353ZM0.27491 10.9744C0.361963 11.0616 0.465341 11.1307 0.579133 11.1779C0.692924 11.2251 0.814897 11.2493 0.938078 11.2493C1.06126 11.2493 1.18323 11.2251 1.29702 11.1779C1.41082 11.1307 1.51419 11.0616 1.60125 10.9744L6.28795 6.28774C6.3751 6.20068 6.44424 6.0973 6.49141 5.98351C6.53858 5.86972 6.56286 5.74775 6.56286 5.62457C6.56286 5.50139 6.53858 5.37941 6.49141 5.26562C6.44424 5.15183 6.3751 5.04845 6.28795 4.9614L1.60125 0.274693C1.42536 0.0988101 1.18681 0 0.938078 0C0.689342 0 0.450793 0.0988101 0.27491 0.274693C0.0990262 0.450577 0.000216105 0.689126 0.000216105 0.937862C0.000216105 1.1866 0.0990262 1.42515 0.27491 1.60103L4.29962 5.62457L0.27491 9.6481C0.187759 9.73516 0.118622 9.83853 0.0714506 9.95233C0.0242796 10.0661 0 10.1881 0 10.3113C0 10.4345 0.0242796 10.5564 0.0714506 10.6702C0.118622 10.784 0.187759 10.8874 0.27491 10.9744Z" fill="white"/>
</svg>
